<svg width="22" height="23" viewBox="0 0 22 23" fill="none" xmlns="http://www.w3.org/2000/svg">
<path d="M0.166748 23V19.75H21.8334V23H0.166748ZM4.50008 14.7813H5.83962L14.8313 5.80614L14.1501 5.1147L13.4752 4.45008L4.50008 13.4417V14.7813ZM2.87508 16.4063V12.75L15.019 0.622935C15.1759 0.466032 15.354 0.347316 15.5533 0.266788C15.7525 0.186261 15.9598 0.145996 16.1752 0.145996C16.3907 0.145996 16.5995 0.186261 16.8013 0.266788C17.0032 0.347316 17.1882 0.471629 17.3563 0.639726L18.6584 1.95841C18.8265 2.11532 18.948 2.29506 19.023 2.49764C19.0979 2.70004 19.1354 2.90931 19.1354 3.12543C19.1354 3.32802 19.0974 3.52943 19.0214 3.72966C18.9453 3.93008 18.8244 4.11325 18.6584 4.27918L6.53133 16.4063H2.87508ZM14.8313 5.80614L14.1501 5.1147L13.4752 4.45008L14.8313 5.80614Z" fill="white"/>
</svg>
