<svg width="23" height="20" viewBox="0 0 23 20" fill="none" xmlns="http://www.w3.org/2000/svg">
<path d="M19.0689 10.8125H6.29183V9.18752H19.0689L17.0981 7.21667L18.2396 6.04179L22.1979 10L18.2396 13.9583L17.0981 12.7834L19.0689 10.8125ZM13.4689 6.60404V2.75008C13.4689 2.65276 13.4377 2.57287 13.3752 2.5104C13.3126 2.44792 13.2327 2.41669 13.1355 2.41669H2.75014C2.65282 2.41669 2.57293 2.44792 2.51046 2.5104C2.44798 2.57287 2.41675 2.65276 2.41675 2.75008V17.25C2.41675 17.3473 2.44798 17.4272 2.51046 17.4896C2.57293 17.5521 2.65282 17.5834 2.75014 17.5834H13.1355C13.2327 17.5834 13.3126 17.5521 13.3752 17.4896C13.4377 17.4272 13.4689 17.3473 13.4689 17.25V13.396H15.0939V17.25C15.0939 17.7902 14.9025 18.2517 14.5197 18.6345C14.1372 19.0171 13.6757 19.2084 13.1355 19.2084H2.75014C2.20992 19.2084 1.74842 19.0171 1.36564 18.6345C0.983047 18.2517 0.791748 17.7902 0.791748 17.25V2.75008C0.791748 2.20986 0.983047 1.74836 1.36564 1.36558C1.74842 0.982986 2.20992 0.791687 2.75014 0.791687H13.1355C13.6757 0.791687 14.1372 0.982986 14.5197 1.36558C14.9025 1.74836 15.0939 2.20986 15.0939 2.75008V6.60404H13.4689Z" fill="white"/>
</svg>
