<svg width="22" height="22" viewBox="0 0 22 22" fill="none" xmlns="http://www.w3.org/2000/svg">
<path d="M0.708252 5.60417V0.708313H5.60411V2.33331H2.33325V5.60417H0.708252ZM0.708252 21.2916V16.3958H2.33325V19.6666H5.60411V21.2916H0.708252ZM16.3957 21.2916V19.6666H19.6666V16.3958H21.2916V21.2916H16.3957ZM19.6666 5.60417V2.33331H16.3957V0.708313H21.2916V5.60417H19.6666ZM16.6563 16.6563H18.125V18.1251H16.6563V16.6563ZM16.6563 13.7186H18.125V15.1873H16.6563V13.7186ZM15.1873 15.1873H16.6563V16.6563H15.1873V15.1873ZM13.7185 16.6563H15.1873V18.1251H13.7185V16.6563ZM12.2498 15.1873H13.7185V16.6563H12.2498V15.1873ZM15.1873 12.2499H16.6563V13.7186H15.1873V12.2499ZM13.7185 13.7186H15.1873V15.1873H13.7185V13.7186ZM12.2498 12.2499H13.7185V13.7186H12.2498V12.2499ZM18.125 3.8749V9.75008H12.2498V3.8749H18.125ZM9.75002 12.2499V18.1251H3.87484V12.2499H9.75002ZM9.75002 3.8749V9.75008H3.87484V3.8749H9.75002ZM8.45815 16.8332V13.5418H5.16671V16.8332H8.45815ZM8.45815 8.45821V5.16677H5.16671V8.45821H8.45815ZM16.8331 8.45821V5.16677H13.5417V8.45821H16.8331Z" fill="white"/>
</svg>
