<svg width="17" height="16" viewBox="0 0 17 16" fill="none" xmlns="http://www.w3.org/2000/svg">
<path d="M3.00063 15.859C2.30577 15.859 1.7532 15.5895 1.34292 15.0504C0.932644 14.5114 0.812991 13.9129 0.983963 13.2548L2.52417 7.45189C2.07112 7.22966 1.68994 6.88591 1.38063 6.42064C1.07132 5.95536 0.916672 5.42626 0.916672 4.83334C0.916672 4.03126 1.2023 3.34466 1.77355 2.77355C2.34466 2.2023 3.03126 1.91668 3.83334 1.91668H10.0833C10.6475 1.91668 11.0738 2.15522 11.3623 2.6323C11.6506 3.10925 11.6692 3.59883 11.4181 4.10105L10.0079 6.92147C9.87014 7.17258 9.68528 7.37341 9.45334 7.52397C9.22139 7.67466 8.96132 7.75001 8.67313 7.75001H6.76126L6.49188 8.75168H6.64584C6.85514 8.75696 7.03167 8.83098 7.17542 8.97376C7.31917 9.11668 7.39105 9.29369 7.39105 9.5048V10.915C7.39105 11.1285 7.31882 11.3074 7.17438 11.4517C7.03008 11.596 6.85119 11.6681 6.63771 11.6681H5.72105L5.01605 14.3381C4.88855 14.7874 4.63952 15.1532 4.26896 15.4354C3.89841 15.7178 3.47563 15.859 3.00063 15.859ZM3.00001 14.609C3.19445 14.609 3.36112 14.5534 3.50001 14.4423C3.63889 14.3312 3.73612 14.1854 3.79167 14.0048L5.4648 7.75001H3.73563L2.18751 13.5673C2.11806 13.8312 2.16667 14.0708 2.33334 14.2861C2.50001 14.5013 2.72223 14.609 3.00001 14.609ZM3.83334 6.50001H8.67313C8.72119 6.50001 8.7666 6.48668 8.80938 6.46001C8.85202 6.43321 8.88403 6.39848 8.90542 6.35584L10.3156 3.53522C10.3584 3.4498 10.3545 3.36703 10.3038 3.28689C10.2529 3.20675 10.1795 3.16668 10.0833 3.16668H3.83334C3.37501 3.16668 2.98264 3.32987 2.65626 3.65626C2.32987 3.98265 2.16667 4.37501 2.16667 4.83334C2.16667 5.29168 2.32987 5.68404 2.65626 6.01043C2.98264 6.33682 3.37501 6.50001 3.83334 6.50001ZM13.4085 3.02251L12.984 2.09772L15.7965 0.81897L16.2083 1.75647L13.4085 3.02251ZM15.7965 8.84772L12.984 7.5898L13.4085 6.6523L16.2083 7.93105L15.7965 8.84772ZM13.4648 5.34605V4.32064H16.5738V5.34605H13.4648Z" fill="#273146"/>
</svg>
