<svg width="22" height="21" viewBox="0 0 22 21" fill="none" xmlns="http://www.w3.org/2000/svg">
<path d="M3.49988 20.75C2.41655 20.75 1.5544 20.3302 0.913426 19.4906C0.272453 18.6511 0.0873838 17.7167 0.358217 16.6875L2.30822 9.32085C1.71238 8.94169 1.22037 8.4271 0.832176 7.7771C0.443981 7.1271 0.249884 6.39585 0.249884 5.58335C0.249884 4.39169 0.674189 3.37155 1.5228 2.52294C2.37141 1.67433 3.39155 1.25002 4.58322 1.25002H13.2499C14.0624 1.25002 14.6763 1.59308 15.0916 2.27919C15.5068 2.9653 15.5339 3.66947 15.1728 4.39169L13.0061 8.72502C12.8075 9.08613 12.5412 9.37502 12.2072 9.59169C11.8731 9.80835 11.4985 9.91669 11.0832 9.91669H8.88947L8.59155 11H8.91655C9.2235 11 9.48079 11.1038 9.68843 11.3115C9.89606 11.5191 9.99988 11.7764 9.99988 12.0834V14.25C9.99988 14.557 9.89606 14.8143 9.68843 15.0219C9.48079 15.2295 9.2235 15.3334 8.91655 15.3334H7.45405L6.64155 18.3667C6.44294 19.0709 6.05475 19.6441 5.47697 20.0865C4.89919 20.5288 4.24016 20.75 3.49988 20.75ZM3.49988 18.5834C3.75266 18.5834 3.96933 18.5111 4.14988 18.3667C4.33044 18.2222 4.45683 18.0327 4.52905 17.7979L6.64155 9.91669H4.39363L2.44363 17.2292C2.35336 17.5722 2.41655 17.8837 2.63322 18.1636C2.84988 18.4434 3.13877 18.5834 3.49988 18.5834ZM4.58322 7.75002H11.0832L13.2499 3.41669H4.58322C3.98738 3.41669 3.47731 3.62884 3.05301 4.05315C2.6287 4.47745 2.41655 4.98752 2.41655 5.58335C2.41655 6.17919 2.6287 6.68926 3.05301 7.11356C3.47731 7.53787 3.98738 7.75002 4.58322 7.75002ZM17.5832 3.41669L16.9061 1.95419L20.8332 0.166687L21.4832 1.65627L17.5832 3.41669ZM20.8332 11L16.9061 9.2396L17.5832 7.75002L21.4832 9.53752L20.8332 11ZM17.5832 6.39585V4.77085H21.9166V6.39585H17.5832Z" fill="white"/>
</svg>
