<svg width="221" height="244" viewBox="0 0 221 244" fill="none" xmlns="http://www.w3.org/2000/svg">
<path d="M88.6406 182.65L75.0057 169.015L88.6406 155.38L102.275 169.015L88.6406 182.65ZM61.3708 182.65L47.7359 169.015L61.3708 155.38L75.0057 169.015L61.3708 182.65ZM75.0057 75.0242L61.3708 61.3892L75.0057 47.7543L88.6406 61.3893L75.0057 75.0242ZM41.6453 149.578L69.2036 122.019L41.6453 94.4611L14.087 122.019L41.6453 149.578ZM41.6434 162.922L0.740601 122.019L41.6434 81.1166L82.5462 122.019L41.6434 162.922ZM122.001 229.933L150.719 201.215L123.161 173.657L94.4426 202.375L122.001 229.933ZM122.001 243.28L81.0981 202.377L123.162 160.313L164.065 201.215L122.001 243.28ZM122.001 69.2221L149.559 41.6638L122.001 14.1055L94.4426 41.6638L122.001 69.2221ZM122.001 82.5647L81.0981 41.6619L122.001 0.75909L162.904 41.6619L122.001 82.5647ZM115.908 155.382L102.274 141.747L88.6406 155.38L75.0057 141.745L102.274 114.477L129.543 141.747L115.908 155.382ZM88.6387 115.927L61.3708 88.6591L75.0057 75.0242L88.6406 88.6591L102.275 75.0242L115.908 88.6572L88.6387 115.927ZM41.6453 131.593L32.072 122.019L41.6453 112.446L51.2186 122.019L41.6453 131.593ZM122.001 209.919L112.428 200.346L122.001 190.773L131.574 200.346L122.001 209.919ZM122.001 51.2371L112.428 41.6638L122.001 32.0905L131.574 41.6638L122.001 51.2371ZM213.091 152.189L190.464 129.562L167.836 152.189L160.294 144.647L182.921 122.019L160.294 99.392L167.837 91.8495L190.464 114.477L213.091 91.8495L220.634 99.392L198.006 122.019L220.634 144.647L213.091 152.189Z" fill="white" fill-opacity="0.25"/>
</svg>
