<svg width="16" height="16" viewBox="0 0 16 16" fill="none" xmlns="http://www.w3.org/2000/svg">
<path d="M6.07698 15.9166L5.75969 13.3781C5.53649 13.3034 5.3076 13.1987 5.07302 13.0641C4.83858 12.9294 4.62892 12.7852 4.44406 12.6314L2.09302 13.625L0.170105 10.2916L2.20365 8.75477C2.18448 8.63088 2.17087 8.50644 2.16281 8.38144C2.15476 8.25644 2.15073 8.13192 2.15073 8.0079C2.15073 7.88942 2.15476 7.76901 2.16281 7.64665C2.17087 7.52429 2.18448 7.39047 2.20365 7.24519L0.170105 5.70831L2.09302 2.39102L4.43594 3.37665C4.63691 3.21748 4.85142 3.07192 5.07948 2.93998C5.30754 2.80804 5.53163 2.70199 5.75177 2.62185L6.07698 0.083313H9.92323L10.2405 2.62977C10.4905 2.7206 10.7167 2.82665 10.9191 2.9479C11.1216 3.06915 11.3259 3.21206 11.5322 3.37665L13.9072 2.39102L15.8301 5.70831L13.7645 7.26915C13.7943 7.40373 13.8107 7.52956 13.8134 7.64665C13.8161 7.76359 13.8174 7.88137 13.8174 7.99998C13.8174 8.11317 13.8147 8.22831 13.8093 8.3454C13.804 8.46234 13.7848 8.59616 13.7518 8.74685L15.8014 10.2916L13.8782 13.625L11.5322 12.6233C11.3259 12.7879 11.1155 12.9335 10.9007 13.06C10.686 13.1866 10.4659 13.29 10.2405 13.3702L9.92323 15.9166H6.07698ZM7.16677 14.6666H8.80469L9.10427 12.4344C9.52955 12.3232 9.91816 12.1654 10.2701 11.9608C10.6222 11.7561 10.9617 11.493 11.2886 11.1714L13.3591 12.0416L14.1797 10.625L12.372 9.2629C12.4414 9.04706 12.4886 8.83547 12.5136 8.6281C12.5388 8.42088 12.5514 8.21151 12.5514 7.99998C12.5514 7.78304 12.5388 7.57366 12.5136 7.37185C12.4886 7.16991 12.4414 6.96366 12.372 6.75311L14.1955 5.37498L13.3751 3.95831L11.2805 4.84123C11.0016 4.54317 10.6675 4.27984 10.2782 4.05123C9.88878 3.82262 9.49483 3.66074 9.09635 3.5656L8.83344 1.33331H7.17969L6.90385 3.55769C6.47872 3.6581 6.08615 3.81192 5.72615 4.01915C5.36601 4.22651 5.02247 4.49359 4.69552 4.8204L2.6251 3.95831L1.80469 5.37498L3.60427 6.71623C3.53483 6.91401 3.48622 7.1197 3.45844 7.33331C3.43066 7.54692 3.41677 7.77179 3.41677 8.0079C3.41677 8.22484 3.43066 8.43748 3.45844 8.64581C3.48622 8.85415 3.53219 9.05984 3.59635 9.2629L1.80469 10.625L2.6251 12.0416L4.6876 11.1666C5.00385 11.4914 5.34198 11.7574 5.70198 11.9648C6.06212 12.172 6.4601 12.3312 6.89594 12.4423L7.16677 14.6666ZM8.00969 10.5C8.70302 10.5 9.29302 10.2566 9.77969 9.76998C10.2664 9.28331 10.5097 8.69331 10.5097 7.99998C10.5097 7.30665 10.2664 6.71665 9.77969 6.22998C9.29302 5.74331 8.70302 5.49998 8.00969 5.49998C7.30774 5.49998 6.71559 5.74331 6.23323 6.22998C5.75087 6.71665 5.50969 7.30665 5.50969 7.99998C5.50969 8.69331 5.75087 9.28331 6.23323 9.76998C6.71559 10.2566 7.30774 10.5 8.00969 10.5Z" fill="white"/>
</svg>
