<svg width="16" height="16" viewBox="0 0 16 16" fill="none" xmlns="http://www.w3.org/2000/svg">
<path d="M6.0768 15.9166L5.7595 13.3781C5.53631 13.3034 5.30742 13.1987 5.07284 13.0641C4.83839 12.9294 4.62874 12.7852 4.44388 12.6314L2.09284 13.625L0.169922 10.2916L2.20346 8.75477C2.1843 8.63088 2.17069 8.50644 2.16263 8.38144C2.15457 8.25644 2.15055 8.13192 2.15055 8.0079C2.15055 7.88942 2.15457 7.76901 2.16263 7.64665C2.17069 7.52429 2.1843 7.39047 2.20346 7.24519L0.169922 5.70831L2.09284 2.39102L4.43576 3.37665C4.63673 3.21748 4.85124 3.07192 5.0793 2.93998C5.30735 2.80804 5.53145 2.70199 5.75159 2.62185L6.0768 0.083313H9.92305L10.2403 2.62977C10.4903 2.7206 10.7165 2.82665 10.9189 2.9479C11.1214 3.06915 11.3258 3.21206 11.532 3.37665L13.907 2.39102L15.8299 5.70831L13.7643 7.26915C13.7942 7.40373 13.8105 7.52956 13.8133 7.64665C13.8159 7.76359 13.8172 7.88137 13.8172 7.99998C13.8172 8.11317 13.8145 8.22831 13.8091 8.3454C13.8038 8.46234 13.7846 8.59616 13.7516 8.74685L15.8012 10.2916L13.878 13.625L11.532 12.6233C11.3258 12.7879 11.1153 12.9335 10.9005 13.06C10.6858 13.1866 10.4658 13.29 10.2403 13.3702L9.92305 15.9166H6.0768ZM7.16659 14.6666H8.8045L9.10409 12.4344C9.52937 12.3232 9.91798 12.1654 10.2699 11.9608C10.622 11.7561 10.9615 11.493 11.2885 11.1714L13.3589 12.0416L14.1795 10.625L12.3718 9.2629C12.4412 9.04706 12.4885 8.83547 12.5135 8.6281C12.5386 8.42088 12.5512 8.21151 12.5512 7.99998C12.5512 7.78304 12.5386 7.57366 12.5135 7.37185C12.4885 7.16991 12.4412 6.96366 12.3718 6.75311L14.1953 5.37498L13.3749 3.95831L11.2803 4.84123C11.0014 4.54317 10.6674 4.27984 10.278 4.05123C9.8886 3.82262 9.49464 3.66074 9.09617 3.5656L8.83325 1.33331H7.1795L6.90367 3.55769C6.47853 3.6581 6.08596 3.81192 5.72596 4.01915C5.36582 4.22651 5.02228 4.49359 4.69534 4.8204L2.62492 3.95831L1.8045 5.37498L3.60409 6.71623C3.53464 6.91401 3.48603 7.1197 3.45825 7.33331C3.43048 7.54692 3.41659 7.77179 3.41659 8.0079C3.41659 8.22484 3.43048 8.43748 3.45825 8.64581C3.48603 8.85415 3.532 9.05984 3.59617 9.2629L1.8045 10.625L2.62492 12.0416L4.68742 11.1666C5.00367 11.4914 5.3418 11.7574 5.7018 11.9648C6.06193 12.172 6.45992 12.3312 6.89575 12.4423L7.16659 14.6666ZM8.0095 10.5C8.70284 10.5 9.29284 10.2566 9.7795 9.76998C10.2662 9.28331 10.5095 8.69331 10.5095 7.99998C10.5095 7.30665 10.2662 6.71665 9.7795 6.22998C9.29284 5.74331 8.70284 5.49998 8.0095 5.49998C7.30756 5.49998 6.71541 5.74331 6.23305 6.22998C5.75069 6.71665 5.5095 7.30665 5.5095 7.99998C5.5095 8.69331 5.75069 9.28331 6.23305 9.76998C6.71541 10.2566 7.30756 10.5 8.0095 10.5Z" fill="#273146"/>
</svg>
